<svg width="1600" height="1000" viewBox="0 0 1600 1000" fill="none" xmlns="http://www.w3.org/2000/svg">
  <defs>
    <linearGradient id="bg" x1="0" y1="0" x2="1600" y2="1000" gradientUnits="userSpaceOnUse">
      <stop stop-color="#F2F3F1" />
      <stop offset="1" stop-color="#E7E9E5" />
    </linearGradient>
    <radialGradient id="g1" cx="0" cy="0" r="1" gradientUnits="userSpaceOnUse" gradientTransform="translate(320 260) rotate(35) scale(420 280)">
      <stop stop-color="#98A5B0" stop-opacity="0.55" />
      <stop offset="1" stop-color="#98A5B0" stop-opacity="0" />
    </radialGradient>
    <radialGradient id="g2" cx="0" cy="0" r="1" gradientUnits="userSpaceOnUse" gradientTransform="translate(1200 740) rotate(-25) scale(440 300)">
      <stop stop-color="#8F9F82" stop-opacity="0.5" />
      <stop offset="1" stop-color="#8F9F82" stop-opacity="0" />
    </radialGradient>
    <radialGradient id="g3" cx="0" cy="0" r="1" gradientUnits="userSpaceOnUse" gradientTransform="translate(1120 230) rotate(30) scale(360 250)">
      <stop stop-color="#BEBCA3" stop-opacity="0.45" />
      <stop offset="1" stop-color="#BEBCA3" stop-opacity="0" />
    </radialGradient>
  </defs>
  <rect width="1600" height="1000" fill="url(#bg)" />
  <rect x="80" y="80" width="1440" height="840" rx="48" stroke="#4A634F" stroke-opacity="0.14" stroke-width="2" />
  <circle cx="320" cy="260" r="300" fill="url(#g1)" />
  <circle cx="1200" cy="740" r="320" fill="url(#g2)" />
  <circle cx="1120" cy="230" r="250" fill="url(#g3)" />
  <g opacity="0.16">
    <path d="M120 520C260 440 380 620 520 540C660 460 780 640 920 560C1060 480 1180 660 1320 580" stroke="#4A634F" stroke-width="2" />
    <path d="M120 580C260 500 380 680 520 600C660 520 780 700 920 620C1060 540 1180 720 1320 640" stroke="#4A634F" stroke-width="2" />
  </g>
</svg>
